# xmcd CD database file
#
# Track frame offsets:
#	150
#	18178
#	32343
#	58459
#	76155
#	94253
#	116792
#	140566
#	161249
#	167197
#	183882
#	202620
#
# Disc length: 2977 seconds
#
# Revision: 0
# Processed by: cddbd v1.5.2PL0 Copyright (c) Steve Scherf et al.
# Submitted via: CDex 1.70beta2
#
DISCID=990b9f0c
DTITLE=Glen Helgeson - Distant Borders
DYEAR=1996
DGENRE=Jazz
TTITLE0=African Song
TTITLE1=A Wedding On Venus
TTITLE2=Room 231
TTITLE3=Geart Of Spring
TTITLE4=American outback
TTITLE5=Manitou (Spirit)
TTITLE6=When Blue Skies Turn Grey
TTITLE7=Sweet Ears
TTITLE8=Fire on the Prairie
TTITLE9=Head for the Hills
TTITLE10=If This
TTITLE11=Southern Exposure
EXTD=YEAR: 1996
EXTT0=
EXTT1=
EXTT2=
EXTT3=
EXTT4=
EXTT5=
EXTT6=
EXTT7=
EXTT8=
EXTT9=
EXTT10=
EXTT11=
PLAYORDER=
